<svg width="29" height="29" viewBox="0 0 24 24" fill="none" xmlns="http://www.w3.org/2000/svg">
<path d="M5.4 18.6L14.4 14.4L18.6 5.4L9.6 9.6L5.4 18.6ZM12 13.2C11.66 13.2 11.3752 13.0848 11.1456 12.8544C10.9152 12.6248 10.8 12.34 10.8 12C10.8 11.66 10.9152 11.3748 11.1456 11.1444C11.3752 10.9148 11.66 10.8 12 10.8C12.34 10.8 12.6252 10.9148 12.8556 11.1444C13.0852 11.3748 13.2 11.66 13.2 12C13.2 12.34 13.0852 12.6248 12.8556 12.8544C12.6252 13.0848 12.34 13.2 12 13.2ZM12 24C10.34 24 8.78 23.6848 7.32 23.0544C5.86 22.4248 4.59 21.57 3.51 20.49C2.43 19.41 1.5752 18.14 0.9456 16.68C0.3152 15.22 0 13.66 0 12C0 10.34 0.3152 8.78 0.9456 7.32C1.5752 5.86 2.43 4.59 3.51 3.51C4.59 2.43 5.86 1.5748 7.32 0.9444C8.78 0.3148 10.34 0 12 0C13.66 0 15.22 0.3148 16.68 0.9444C18.14 1.5748 19.41 2.43 20.49 3.51C21.57 4.59 22.4248 5.86 23.0544 7.32C23.6848 8.78 24 10.34 24 12C24 13.66 23.6848 15.22 23.0544 16.68C22.4248 18.14 21.57 19.41 20.49 20.49C19.41 21.57 18.14 22.4248 16.68 23.0544C15.22 23.6848 13.66 24 12 24ZM12 21.6C14.66 21.6 16.9252 20.6652 18.7956 18.7956C20.6652 16.9252 21.6 14.66 21.6 12C21.6 9.34 20.6652 7.0748 18.7956 5.2044C16.9252 3.3348 14.66 2.4 12 2.4C9.34 2.4 7.0752 3.3348 5.2056 5.2044C3.3352 7.0748 2.4 9.34 2.4 12C2.4 14.66 3.3352 16.9252 5.2056 18.7956C7.0752 20.6652 9.34 21.6 12 21.6Z" fill="#333"/>
</svg>
