<svg width="26" height="26" viewBox="0 0 24 24" fill="none" xmlns="http://www.w3.org/2000/svg">
<path d="M10.0392 0.225712C10.1766 0.132115 10.3372 0.0650864 10.5094 0.0294547C10.6817 -0.00617694 10.8612 -0.0095249 11.0352 0.0196519L23.0352 2.02023C23.3071 2.06554 23.5518 2.18796 23.7277 2.36667C23.9036 2.54538 23.9998 2.76936 24 3.00052V20.9997C23.9998 21.2309 23.9036 21.4549 23.7277 21.6336C23.5518 21.8123 23.3071 21.9347 23.0352 21.98L11.0352 23.9806C10.8612 24.0096 10.6816 24.0061 10.5094 23.9702C10.3372 23.9344 10.1767 23.8672 10.0394 23.7734C9.90217 23.6797 9.79155 23.5617 9.71556 23.428C9.63958 23.2943 9.60011 23.1483 9.6 23.0003V0.999936L10.0392 0.225712ZM16.8 11.9991C16.8 11.7338 16.6736 11.4794 16.4485 11.2918C16.2235 11.1042 15.9183 10.9988 15.6 10.9988C15.2817 10.9988 14.9765 11.1042 14.7515 11.2918C14.5264 11.4794 14.4 11.7338 14.4 11.9991C14.4 12.2644 14.5264 12.5188 14.7515 12.7064C14.9765 12.894 15.2817 12.9994 15.6 12.9994C15.9183 12.9994 16.2235 12.894 16.4485 12.7064C16.6736 12.5188 16.8 12.2644 16.8 11.9991ZM7.2 2.00023H1.2C0.88174 2.00023 0.576516 2.10561 0.351472 2.2932C0.126428 2.4808 0 2.73522 0 3.00052V20.9997C0 21.265 0.126428 21.5195 0.351472 21.707C0.576516 21.8946 0.88174 22 1.2 22H7.2V2.00023ZM10.0392 0.225712C9.9018 0.31961 9.79113 0.437771 9.71517 0.571661C9.63922 0.705552 9.59988 0.851831 9.6 0.999936L10.0392 0.225712Z" fill="#5B628F"/>
</svg>
