<svg width="24" height="24" viewBox="0 0 24 24" fill="none" xmlns="http://www.w3.org/2000/svg">
<path d="M16.8 11.999C16.8 12.2643 16.6736 12.5187 16.4485 12.7063C16.2235 12.8939 15.9183 12.9993 15.6 12.9993C15.2817 12.9993 14.9765 12.8939 14.7515 12.7063C14.5264 12.5187 14.4 12.2643 14.4 11.999C14.4 11.7337 14.5264 11.4793 14.7515 11.2917C14.9765 11.1041 15.2817 10.9987 15.6 10.9987C15.9183 10.9987 16.2235 11.1041 16.4485 11.2917C16.6736 11.4793 16.8 11.7337 16.8 11.999ZM11.0352 0.0194019C10.8612 -0.00959352 10.6816 -0.00605149 10.5094 0.0297724C10.3372 0.0655963 10.1767 0.13281 10.0394 0.226572C9.90217 0.320334 9.79155 0.438309 9.71556 0.571998C9.63958 0.705686 9.60011 0.851761 9.6 0.999696V23.0003C9.60011 23.1482 9.63958 23.2943 9.71556 23.428C9.79155 23.5617 9.90217 23.6797 10.0394 23.7734C10.1767 23.8672 10.3372 23.9344 10.5094 23.9702C10.6816 24.0061 10.8612 24.0096 11.0352 23.9806L23.0352 21.98C23.3071 21.9347 23.5518 21.8123 23.7277 21.6336C23.9036 21.4548 23.9998 21.2309 24 20.9997V3.0003C23.9998 2.76914 23.9036 2.54516 23.7277 2.36644C23.5518 2.18773 23.3071 2.06531 23.0352 2.02L11.0352 0.0194019ZM12 21.7799V2.22006L21.6 3.82054V20.1795L12 21.7799ZM7.2 22V19.9994H2.4V4.0006H7.2V2H1.2C0.88174 2 0.576516 2.10539 0.351472 2.29298C0.126428 2.48057 0 2.735 0 3.0003V20.9997C0 21.265 0.126428 21.5194 0.351472 21.707C0.576516 21.8946 0.88174 22 1.2 22H7.2Z" fill="#929191"/>
</svg>
